:SAMPLES-PER-SECOND 30
:FULLY-SPECIFIED
:DEGREES
785
root  5.78422 32.8773 -22.4743 95.261 -3.09765 93.2006
Spine  -12.3263 -13.4933 -4.78532
Spine1  -11.6733 33.5688 -2.55392
Neck  3.97569e-016 0 -2.38542e-015
Head  24.5898 -8.70391 -2.12312
R_Clavicle  0.627218 -16.6799 6.15647
R_UpperArm  52.1356 -6.16177 57.2785
R_Forearm  34.3411 -33.4247 26.9106
R_Hand  -0.832005 6.92991 -17.3205
L_Clavicle  -0.528542 18.5829 0.0165802
L_UpperArm  -27.506 9.05363 40.1415
L_Forearm  -13.6413 39.6073 51.9595
L_Hand  0.323128 -0.386533 6.91959
L_Thigh  -14.5878 -11.6896 -13.2972
L_Calf  11.6617 -1.61054 11.8013
L_Foot  -1.86596 6.96489 -13.7169
L_Toe0  16.2427 -8.50883 20.0902
R_Thigh  0.693615 4.82111 8.8911
R_Calf  -9.61497 1.72827 5.34854
R_Foot  2.167 5.5848 -8.80864
R_Toe0  -5.04495 -0.0349875 -14.4293
786
root  6.02752 32.8497 -21.88 100.74 -1.5216 93.8212
Spine  -12.7548 -13.4499 -3.59513
Spine1  -12.1625 34.8518 -3.21352
Neck  3.97569e-016 0 -2.38542e-015
Head  24.2738 -8.37141 -2.08056
R_Clavicle  0.794304 -14.135 7.16038
R_UpperArm  57.2803 -8.14973 63.5864
R_Forearm  36.8204 -33.5499 30.6731
R_Hand  -0.579391 8.00947 -15.6682
L_Clavicle  -0.430532 15.1825 0.347875
L_UpperArm  -26.4139 4.95794 50.26
L_Forearm  -13.5036 38.0198 47.0405
L_Hand  0.305173 1.67041 4.90613
L_Thigh  -15.8613 -10.8533 -13.3544
L_Calf  9.08855 -0.998228 7.11625
L_Foot  -3.13801 4.40379 -18.0458
L_Toe0  17.1603 -9.03038 20.1176
R_Thigh  3.33546 6.63392 8.24943
R_Calf  -8.5458 4.7666 14.98
R_Foot  2.63471 7.68313 -9.40914
R_Toe0  -4.08393 -0.108252 -15.2786
787
root  6.2363 32.3987 -21.3312 105.666 -0.249103 93.725
Spine  -12.5688 -11.8023 -3.49645
Spine1  -12.1511 34.3129 -3.24259
Neck  3.97569e-016 0 -2.38542e-015
Head  21.94 -7.17594 -2.2057
R_Clavicle  1.00104 -11.5789 8.11779
R_UpperArm  60.576 -10.2596 69.6277
R_Forearm  40.6429 -33.0268 34.1233
R_Hand  -0.520506 8.66007 -15.4478
L_Clavicle  -0.365399 11.6294 1.07478
L_UpperArm  -26.8604 -2.38876 57.2925
L_Forearm  -11.9397 37.7065 44.8243
L_Hand  0.195155 1.61389 3.19654
L_Thigh  -16.336 -9.75796 -12.5044
L_Calf  4.68288 -0.17413 0.973837
L_Foot  -3.57021 4.00205 -19.8491
L_Toe0  15.5039 -8.49816 20.9265
R_Thigh  8.8014 7.97707 8.70662
R_Calf  -11.245 7.54394 24.2691
R_Foot  3.96304 14.3803 -11.4296
R_Toe0  -1.5852 -0.287367 -17.5045
788
root  6.4917 31.4101 -20.7179 110.13 1.47999 94.3092
Spine  -12.2878 -10.5185 -3.48121
Spine1  -11.8405 32.9899 -2.88638
Neck  3.97569e-016 0 -2.38542e-015
Head  18.9926 -5.74029 -2.25103
R_Clavicle  1.26414 -7.83705 8.64027
R_UpperArm  61.2581 -13.1458 75.5852
R_Forearm  45.15 -32.4007 36.1156
R_Hand  -0.46768 8.95699 -15.1664
L_Clavicle  -0.337977 5.8133 1.41284
L_UpperArm  -29.943 -9.21799 60.7283
L_Forearm  -9.03658 37.6561 45.1005
L_Hand  0.130165 0.0883937 2.59411
L_Thigh  -15.5696 -9.5075 -12.669
L_Calf  0.0925341 0.825781 -6.3961
L_Foot  -3.03938 4.40458 -17.662
L_Toe0  9.83173 -5.80452 21.5754
R_Thigh  17.7162 8.18281 9.46039
R_Calf  -12.7372 8.95729 29.3415
R_Foot  3.82011 13.3247 -15.2959
R_Toe0  -1.78853 -0.272788 -17.3235
789
root  6.80818 29.9615 -19.956 114.184 4.21318 96.073
Spine  -12.2314 -10.4037 -2.47438
Spine1  -11.5244 31.5612 -2.73328
Neck  3.97569e-016 0 -2.38542e-015
Head  17.0063 -4.65569 -1.50316
R_Clavicle  1.57105 -2.54978 8.72037
R_UpperArm  59.6202 -15.8685 81.5635
R_Forearm  47.8241 -32.2127 36.839
R_Hand  -0.381341 9.26908 -14.6668
L_Clavicle  -0.621784 -1.58346 5.41838
L_UpperArm  -35.237 -14.1344 61.325
L_Forearm  -6.53953 37.1175 47.7387
L_Hand  0.084482 -1.57085 2.25212
L_Thigh  -14.4923 -9.27343 -14.9756
L_Calf  -2.83655 1.92214 -14.5463
L_Foot  -1.94374 4.54208 -12.9622
L_Toe0  4.95462 -3.28542 21.6816
R_Thigh  24.8564 8.81721 9.88698
R_Calf  -7.66034 8.40066 27.4443
R_Foot  -0.296364 -8.78162 -12.9786
R_Toe0  -1.78858 -0.272789 -17.3235
790
root  7.11134 28.3937 -19.116 117.809 7.5945 97.7246
Spine  -12.1662 -10.0493 -0.836054
Spine1  -11.3929 30.1573 -3.15346
Neck  3.97569e-016 0 -2.38542e-015
Head  16.2069 -3.70328 -0.386186
R_Clavicle  1.88834 2.53102 8.89811
R_UpperArm  58.066 -16.2088 86.7578
R_Forearm  46.8515 -31.9006 35.9275
R_Hand  -0.36858 9.32899 -14.5994
L_Clavicle  -0.682397 -9.44753 3.6545
L_UpperArm  -41.4314 -19.169 60.2337
L_Forearm  -5.55879 35.3679 50.502
L_Hand  0.021313 -3.35312 0.733713
L_Thigh  -13.6483 -7.2992 -18.3509
L_Calf  -3.35579 2.94959 -22.4144
L_Foot  -0.967032 4.49121 -8.73822
L_Toe0  1.24616 -1.49941 23.062
R_Thigh  26.6459 10.042 9.73489
R_Calf  3.49692 6.66711 21.4314
R_Foot  -6.30389 -27.1128 -3.46623
R_Toe0  -1.78887 -0.272795 -17.3237
791
root  7.33002 27.1302 -18.3762 120.935 10.6251 98.5154
Spine  -11.9518 -9.39436 0.289326
Spine1  -11.2603 29.7282 -3.51612
Neck  3.97569e-016 0 -2.38542e-015
Head  16.0039 -2.98722 -0.181849
R_Clavicle  2.15451 5.85404 9.203
R_UpperArm  58.7315 -14.1407 88.6578
R_Forearm  43.0203 -30.5584 32.8058
R_Hand  -0.484207 8.86913 -15.2519
L_Clavicle  -1.70183 -14.3534 8.07171
L_UpperArm  -49.0344 -24.1297 58.0726
L_Forearm  -3.85327 31.804 48.2142
L_Hand  0.00459033 -4.83843 -1.99927
L_Thigh  -12.805 -3.97667 -21.6465
L_Calf  -2.13764 3.67198 -28.1709
L_Foot  -0.120738 4.53453 -5.17871
L_Toe0  -0.621939 -0.575132 24.7935
R_Thigh  27.4822 9.56485 11.5762
R_Calf  9.20987 3.00163 9.79903
R_Foot  -7.38155 -20.9008 4.41686
R_Toe0  -1.78434 -0.272715 -17.3211
792
root  7.28288 26.6589 -18.0133 123.376 12.2382 98.7608
Spine  -11.5692 -9.81142 0.43891
Spine1  -10.7695 30.9446 -3.38968
Neck  3.97569e-016 0 -2.38542e-015
Head  15.9186 -3.3956 -0.504636
R_Clavicle  2.13198 6.88219 8.88002
R_UpperArm  60.9486 -12.086 86.2493
R_Forearm  39.8315 -27.9112 27.6971
R_Hand  -0.659793 8.12903 -16.3154
L_Clavicle  -2.37118 -16.3095 10.1201
L_UpperArm  -57.6205 -25.2955 54.7106
L_Forearm  -1.87263 26.2177 37.0328
L_Hand  -0.027865 -4.312 -3.64512
L_Thigh  -11.2145 -1.55307 -24.033
L_Calf  -0.545016 3.85025 -29.6205
L_Foot  0.761335 4.45922 -1.40226
L_Toe0  -0.436803 -0.733006 25.5417
R_Thigh  29.1762 9.46461 11.5425
R_Calf  10.9699 1.86438 6.18182
R_Foot  -8.2713 -20.8403 7.3535
R_Toe0  -1.77071 -0.272473 -17.3134
793
root  6.7903 27.2229 -18.2369 124.909 11.7202 98.9926
Spine  -10.9639 -11.519 -0.219351
Spine1  -10.0034 32.0959 -3.5204
Neck  3.97569e-016 0 -2.38542e-015
Head  15.5513 -4.98747 0.519712
R_Clavicle  1.73625 5.34711 7.63175
R_UpperArm  60.8821 -10.7243 80.2014
R_Forearm  40.134 -24.7594 22.5762
R_Hand  -0.799418 7.46607 -17.2192
L_Clavicle  -2.55913 -16.653 10.7117
L_UpperArm  -59.4478 -21.962 49.9837
L_Forearm  -4.84245 17.2862 20.8924
L_Hand  -0.088078 -1.81753 -2.70246
L_Thigh  -8.05838 -1.96608 -24.6008
L_Calf  1.16089 3.39827 -25.9215
L_Foot  1.28176 3.97493 1.26704
L_Toe0  2.1613 -2.29657 25.4986
R_Thigh  30.4274 9.11152 10.0046
R_Calf  10.5869 3.51987 11.3515
R_Foot  -8.2459 -23.179 4.96765
R_Toe0  -1.78842 -0.27493 -17.4004
794
root  5.9493 28.4876 -18.9951 125.668 9.37937 99.2466
Spine  -10.1809 -12.7624 -1.35275
Spine1  -9.42651 30.8531 -4.72073
Neck  3.97569e-016 0 -2.38542e-015
Head  14.643 -6.68229 3.17274
R_Clavicle  1.30921 1.50537 6.37861
R_UpperArm  55.1591 -8.2811 70.7094
R_Forearm  42.748 -23.1935 20.6711
R_Hand  -0.865819 6.84438 -17.6045
L_Clavicle  -2.03021 -15.0378 9.0213
L_UpperArm  -52.8499 -17.82 44.2521
L_Forearm  -9.77668 6.34581 7.36906
L_Hand  -0.0368013 0.378508 -0.71807
L_Thigh  -3.49045 -4.7384 -23.6175
L_Calf  3.26366 2.46704 -18.6285
L_Foot  1.16139 3.07904 1.73876
L_Toe0  6.80216 -4.79256 24.0756
R_Thigh  29.5616 9.0169 7.90266
R_Calf  7.52738 7.29926 23.2815
R_Foot  -6.68745 -29.074 -4.38869
R_Toe0  -1.68058 -0.251699 -16.5549
795
root  5.05536 29.7867 -20.0467 125.787 6.33823 99.1483
Spine  -9.07715 -11.678 -2.56904
Spine1  -9.00376 26.9356 -6.92847
Neck  3.97569e-016 0 -2.38542e-015
Head  13.6156 -8.21419 5.40739
R_Clavicle  1.11876 -2.7807 6.16821
R_UpperArm  47.4417 -4.07744 58.1361
R_Forearm  41.1986 -26.0899 22.0048
R_Hand  -0.862297 6.3028 -17.434
L_Clavicle  -1.41882 -9.68356 7.94947
L_UpperArm  -42.2758 -14.8276 37.7746
L_Forearm  -11.3003 -0.835542 -0.976279
L_Hand  0.0226986 2.02209 0.436437
L_Thigh  0.463021 -7.71386 -21.9294
L_Calf  4.51774 1.41534 -10.7362
L_Foot  0.975638 1.8342 2.39942
L_Toe0  8.41915 -4.77993 20.387
R_Thigh  22.0807 8.69972 6.03299
R_Calf  1.06993 12.0318 35.8261
R_Foot  0.0262187 -27.3864 -22.6321
R_Toe0  -1.72248 -0.1772 -14.0926
796
root  4.23065 30.6704 -21.1706 125.103 3.89052 98.6489
Spine  -7.2661 -7.94633 -2.76624
Spine1  -8.06193 21.4459 -9.69342
Neck  3.97569e-016 0 -2.38542e-015
Head  13.081 -10.4847 5.51543
R_Clavicle  0.970351 -5.46638 5.8076
R_UpperArm  43.0598 0.473633 44.369
R_Forearm  30.9626 -32.9417 23.558
R_Hand  -0.773913 6.35427 -16.6717
L_Clavicle  -0.406807 -4.59943 2.73878
L_UpperArm  -30.0365 -11.4816 31
L_Forearm  -8.62983 -2.46703 -2.86132
L_Hand  0.130483 3.65202 1.7622
L_Thigh  1.99016 -9.46112 -19.5954
L_Calf  3.7386 0.560138 -4.44965
L_Foot  1.70669 1.57482 5.97478
L_Toe0  9.36079 -3.61695 13.448
R_Thigh  10.4377 8.38873 5.09602
R_Calf  -2.90749 14.4089 40.6033
R_Foot  2.58686 -16.7237 -27.9873
R_Toe0  -2.72505 -0.244615 -16.7646
